{"asset":{"version":"2.0","generator":"Blockbench 4.5.2 glTF exporter"},"scenes":[{"nodes":[17],"name":"blockbench_export"}],"scene":0,"nodes":[{"translation":[0,-1,0],"name":"sphere","mesh":0},{"translation":[0,-1,0],"name":"sphere","mesh":1},{"translation":[0,-1,0],"name":"cylinder","mesh":2},{"rotation":[0.6788577573246825,-0.19786899170060265,-0.1978689950875179,0.6788577673022127],"translation":[0.8125,-0.125,0],"name":"plane","mesh":3},{"rotation":[0.696364235176544,-0.1227878028286911,-0.27059805229960276,0.65328148721294],"translation":[0.8125,-0.125,0],"name":"plane","mesh":4},{"rotation":[-0.7071067811865476,0,0,0.7071067811865476],"translation":[0,-0.875,-0.75],"name":"cone","mesh":5},{"translation":[0,-1,0],"name":"sphere","mesh":6},{"translation":[0,-1,0],"name":"sphere","mesh":7},{"rotation":[0,0,0.3007057995042731,0.9537169507482269],"translation":[-1.125,-1,0],"name":"cylinder","mesh":8},{"rotation":[0,0,0.6915130557822694,0.7223639620597556],"translation":[-1.125,-1,0],"name":"cylinder","mesh":9},{"rotation":[0,0,0.10886687485196457,0.9940563382223196],"translation":[-1.125,-1,0],"name":"cylinder","mesh":10},{"rotation":[0,0,-0.5913096483635822,0.8064446042674827],"translation":[0.375,-1.1875,0.125],"name":"cylinder","mesh":11},{"rotation":[0,0,-0.8870108331782222,0.4617486132350331],"translation":[0.375,-1.1875,0.125],"name":"cylinder","mesh":12},{"rotation":[0,0,-0.4226182617406994,0.9063077870366499],"translation":[0.375,-1.1875,0.125],"name":"cylinder","mesh":13},{"translation":[-0.3826834323650896,-3.048879532511287,0],"name":"cylinder","mesh":14},{"translation":[-0.3826834323650896,-3.048879532511287,0],"name":"cylinder","mesh":15},{"rotation":[0,0,0.19509032201612825,0.9807852804032304],"translation":[-0.1875,1.9375,0],"name":"bone","children":[14,15]},{"children":[0,1,2,3,4,5,6,7,8,9,10,11,12,13,16]}],"bufferViews":[{"buffer":0,"byteOffset":0,"byteLength":3168,"target":34962,"byteStride":12},{"buffer":0,"byteOffset":3168,"byteLength":3168,"target":34962,"byteStride":12},{"buffer":0,"byteOffset":6336,"byteLength":2112,"target":34962,"byteStride":8},{"buffer":0,"byteOffset":8448,"byteLength":720,"target":34963},{"buffer":0,"byteOffset":9168,"byteLength":3168,"target":34962,"byteStride":12},{"buffer":0,"byteOffset":12336,"byteLength":3168,"target":34962,"byteStride":12},{"buffer":0,"byteOffset":15504,"byteLength":2112,"target":34962,"byteStride":8},{"buffer":0,"byteOffset":17616,"byteLength":720,"target":34963},{"buffer":0,"byteOffset":18336,"byteLength":576,"target":34962,"byteStride":12},{"buffer":0,"byteOffset":18912,"byteLength":576,"target":34962,"byteStride":12},{"buffer":0,"byteOffset":19488,"byteLength":384,"target":34962,"byteStride":8},{"buffer":0,"byteOffset":19872,"byteLength":144,"target":34963},{"buffer":0,"byteOffset":20016,"byteLength":48,"target":34962,"byteStride":12},{"buffer":0,"byteOffset":20064,"byteLength":48,"target":34962,"byteStride":12},{"buffer":0,"byteOffset":20112,"byteLength":32,"target":34962,"byteStride":8},{"buffer":0,"byteOffset":20144,"byteLength":12,"target":34963},{"buffer":0,"byteOffset":20156,"byteLength":48,"target":34962,"byteStride":12},{"buffer":0,"byteOffset":20204,"byteLength":48,"target":34962,"byteStride":12},{"buffer":0,"byteOffset":20252,"byteLength":32,"target":34962,"byteStride":8},{"buffer":0,"byteOffset":20284,"byteLength":12,"target":34963},{"buffer":0,"byteOffset":20296,"byteLength":864,"target":34962,"byteStride":12},{"buffer":0,"byteOffset":21160,"byteLength":864,"target":34962,"byteStride":12},{"buffer":0,"byteOffset":22024,"byteLength":576,"target":34962,"byteStride":8},{"buffer":0,"byteOffset":22600,"byteLength":144,"target":34963},{"buffer":0,"byteOffset":22744,"byteLength":1344,"target":34962,"byteStride":12},{"buffer":0,"byteOffset":24088,"byteLength":1344,"target":34962,"byteStride":12},{"buffer":0,"byteOffset":25432,"byteLength":896,"target":34962,"byteStride":8},{"buffer":0,"byteOffset":26328,"byteLength":288,"target":34963},{"buffer":0,"byteOffset":26616,"byteLength":1344,"target":34962,"byteStride":12},{"buffer":0,"byteOffset":27960,"byteLength":1344,"target":34962,"byteStride":12},{"buffer":0,"byteOffset":29304,"byteLength":896,"target":34962,"byteStride":8},{"buffer":0,"byteOffset":30200,"byteLength":288,"target":34963},{"buffer":0,"byteOffset":30488,"byteLength":480,"target":34962,"byteStride":12},{"buffer":0,"byteOffset":30968,"byteLength":480,"target":34962,"byteStride":12},{"buffer":0,"byteOffset":31448,"byteLength":320,"target":34962,"byteStride":8},{"buffer":0,"byteOffset":31768,"byteLength":96,"target":34963},{"buffer":0,"byteOffset":31864,"byteLength":480,"target":34962,"byteStride":12},{"buffer":0,"byteOffset":32344,"byteLength":480,"target":34962,"byteStride":12},{"buffer":0,"byteOffset":32824,"byteLength":320,"target":34962,"byteStride":8},{"buffer":0,"byteOffset":33144,"byteLength":96,"target":34963},{"buffer":0,"byteOffset":33240,"byteLength":480,"target":34962,"byteStride":12},{"buffer":0,"byteOffset":33720,"byteLength":480,"target":34962,"byteStride":12},{"buffer":0,"byteOffset":34200,"byteLength":320,"target":34962,"byteStride":8},{"buffer":0,"byteOffset":34520,"byteLength":96,"target":34963},{"buffer":0,"byteOffset":34616,"byteLength":480,"target":34962,"byteStride":12},{"buffer":0,"byteOffset":35096,"byteLength":480,"target":34962,"byteStride":12},{"buffer":0,"byteOffset":35576,"byteLength":320,"target":34962,"byteStride":8},{"buffer":0,"byteOffset":35896,"byteLength":96,"target":34963},{"buffer":0,"byteOffset":35992,"byteLength":480,"target":34962,"byteStride":12},{"buffer":0,"byteOffset":36472,"byteLength":480,"target":34962,"byteStride":12},{"buffer":0,"byteOffset":36952,"byteLength":320,"target":34962,"byteStride":8},{"buffer":0,"byteOffset":37272,"byteLength":96,"target":34963},{"buffer":0,"byteOffset":37368,"byteLength":480,"target":34962,"byteStride":12},{"buffer":0,"byteOffset":37848,"byteLength":480,"target":34962,"byteStride":12},{"buffer":0,"byteOffset":38328,"byteLength":320,"target":34962,"byteStride":8},{"buffer":0,"byteOffset":38648,"byteLength":96,"target":34963},{"buffer":0,"byteOffset":38744,"byteLength":672,"target":34962,"byteStride":12},{"buffer":0,"byteOffset":39416,"byteLength":672,"target":34962,"byteStride":12},{"buffer":0,"byteOffset":40088,"byteLength":448,"target":34962,"byteStride":8},{"buffer":0,"byteOffset":40536,"byteLength":144,"target":34963},{"buffer":0,"byteOffset":40680,"byteLength":960,"target":34962,"byteStride":12},{"buffer":0,"byteOffset":41640,"byteLength":960,"target":34962,"byteStride":12},{"buffer":0,"byteOffset":42600,"byteLength":640,"target":34962,"byteStride":8},{"buffer":0,"byteOffset":43240,"byteLength":192,"target":34963}],"buffers":[{"byteLength":43432,"uri":"data:application/octet-stream;base64,"}],"accessors":[{"bufferView":0,"componentType":5126,"count":264,"max":[0.5,2.0625,0.5],"min":[-0.5,1.0625,-0.5],"type":"VEC3"},{"bufferView":1,"componentType":5126,"count":264,"max":[0.9659258127212524,0.9659258127212524,0.9659258127212524],"min":[-0.9659258127212524,-0.9659258127212524,-0.9659258127212524],"type":"VEC3"},{"bufferView":2,"componentType":5126,"count":264,"max":[0.9853453040122986,1],"min":[0,0.125],"type":"VEC2"},{"bufferView":3,"componentType":5123,"count":360,"max":[263],"min":[0],"type":"SCALAR"},{"bufferView":4,"componentType":5126,"count":264,"max":[0.625,1.3125,0.625],"min":[-0.625,0.0625,-0.625],"type":"VEC3"},{"bufferView":5,"componentType":5126,"count":264,"max":[0.9659258127212524,0.9659258127212524,0.9659258127212524],"min":[-0.9659258127212524,-0.9659258127212524,-0.9659258127212524],"type":"VEC3"},{"bufferView":6,"componentType":5126,"count":264,"max":[0.9168514609336853,1],"min":[0,0.25],"type":"VEC2"},{"bufferView":7,"componentType":5123,"count":360,"max":[263],"min":[0],"type":"SCALAR"},{"bufferView":8,"componentType":5126,"count":48,"max":[0.40625,1.375,0.40625],"min":[-0.40625,1.125,-0.40625],"type":"VEC3"},{"bufferView":9,"componentType":5126,"count":48,"max":[1,0,1],"min":[-1,0,-1],"type":"VEC3"},{"bufferView":10,"componentType":5126,"count":48,"max":[0.8820343613624573,0.75],"min":[0.2742156386375427,0.140625],"type":"VEC2"},{"bufferView":11,"componentType":5123,"count":72,"max":[47],"min":[0],"type":"SCALAR"},{"bufferView":12,"componentType":5126,"count":4,"max":[0.0625,0,0],"min":[-0.5625,0,-0.125],"type":"VEC3"},{"bufferView":13,"componentType":5126,"count":4,"max":[0,1,0],"min":[0,1,0],"type":"VEC3"},{"bufferView":14,"componentType":5126,"count":4,"max":[0.65625,0.6875],"min":[0.5,0.65625],"type":"VEC2"},{"bufferView":15,"componentType":5123,"count":6,"max":[3],"min":[0],"type":"SCALAR"},{"bufferView":16,"componentType":5126,"count":4,"max":[0,-0.125,0.0625],"min":[-0.625,-0.125,-0.0625],"type":"VEC3"},{"bufferView":17,"componentType":5126,"count":4,"max":[0,1,0],"min":[0,1,0],"type":"VEC3"},{"bufferView":18,"componentType":5126,"count":4,"max":[0.421875,0.453125],"min":[0.265625,0.421875],"type":"VEC2"},{"bufferView":19,"componentType":5123,"count":6,"max":[3],"min":[0],"type":"SCALAR"},{"bufferView":20,"componentType":5126,"count":72,"max":[0.125,0.046875,1.5625],"min":[-0.125,-0.453125,1.3125],"type":"VEC3"},{"bufferView":21,"componentType":5126,"count":72,"max":[0.9701424837112427,0.24253562092781067,0.9701424837112427],"min":[-0.9701424837112427,-1,-0.9701424837112427],"type":"VEC3"},{"bufferView":22,"componentType":5126,"count":72,"max":[0.71875,0.9229773879051208],"min":[0,0.058653123676776886],"type":"VEC2"},{"bufferView":23,"componentType":5123,"count":72,"max":[71],"min":[0],"type":"SCALAR"},{"bufferView":24,"componentType":5126,"count":112,"max":[0.28125,1.71875,-0.28125],"min":[0.09375,1.53125,-0.46875],"type":"VEC3"},{"bufferView":25,"componentType":5126,"count":112,"max":[0.9238795042037964,0.9238795042037964,0.9238795042037964],"min":[-0.9238795042037964,-0.9238795042037964,-0.9238795042037964],"type":"VEC3"},{"bufferView":26,"componentType":5126,"count":112,"max":[0.7067059874534607,1],"min":[0.011832812801003456,0.328125],"type":"VEC2"},{"bufferView":27,"componentType":5123,"count":144,"max":[111],"min":[0],"type":"SCALAR"},{"bufferView":28,"componentType":5126,"count":112,"max":[-0.09375,1.71875,-0.28125],"min":[-0.28125,1.53125,-0.46875],"type":"VEC3"},{"bufferView":29,"componentType":5126,"count":112,"max":[0.9238795042037964,0.9238795042037964,0.9238795042037964],"min":[-0.9238795042037964,-0.9238795042037964,-0.9238795042037964],"type":"VEC3"},{"bufferView":30,"componentType":5126,"count":112,"max":[0.6754574179649353,1],"min":[0,0.2776690423488617],"type":"VEC2"},{"bufferView":31,"componentType":5123,"count":144,"max":[111],"min":[0],"type":"SCALAR"},{"bufferView":32,"componentType":5126,"count":40,"max":[1.03125,1,0.03125],"min":[0.96875,0.125,-0.03125],"type":"VEC3"},{"bufferView":33,"componentType":5126,"count":40,"max":[1,1,1],"min":[-1,-1,-1],"type":"VEC3"},{"bufferView":34,"componentType":5126,"count":40,"max":[0.9191941618919373,1],"min":[0,0.0625],"type":"VEC2"},{"bufferView":35,"componentType":5123,"count":48,"max":[39],"min":[0],"type":"SCALAR"},{"bufferView":36,"componentType":5126,"count":40,"max":[1.40625,0,0.03125],"min":[1.34375,-0.25,-0.03125],"type":"VEC3"},{"bufferView":37,"componentType":5126,"count":40,"max":[1,1,1],"min":[-1,-1,-1],"type":"VEC3"},{"bufferView":38,"componentType":5126,"count":40,"max":[0.9191941618919373,1],"min":[0.1875,0.0625],"type":"VEC2"},{"bufferView":39,"componentType":5123,"count":48,"max":[39],"min":[0],"type":"SCALAR"},{"bufferView":40,"componentType":5126,"count":40,"max":[0.59375,1.5,0.03125],"min":[0.53125,1.25,-0.03125],"type":"VEC3"},{"bufferView":41,"componentType":5126,"count":40,"max":[1,1,1],"min":[-1,-1,-1],"type":"VEC3"},{"bufferView":42,"componentType":5126,"count":40,"max":[0.9191941618919373,1],"min":[0.0625,0.0625],"type":"VEC2"},{"bufferView":43,"componentType":5123,"count":48,"max":[39],"min":[0],"type":"SCALAR"},{"bufferView":44,"componentType":5126,"count":40,"max":[-0.96875,1,0.03125],"min":[-1.03125,0.125,-0.03125],"type":"VEC3"},{"bufferView":45,"componentType":5126,"count":40,"max":[1,1,1],"min":[-1,-1,-1],"type":"VEC3"},{"bufferView":46,"componentType":5126,"count":40,"max":[0.9191941618919373,1],"min":[0.25,0.08080582320690155],"type":"VEC2"},{"bufferView":47,"componentType":5123,"count":48,"max":[39],"min":[0],"type":"SCALAR"},{"bufferView":48,"componentType":5126,"count":40,"max":[-1.21875,-0.0625,0.03125],"min":[-1.28125,-0.3125,-0.03125],"type":"VEC3"},{"bufferView":49,"componentType":5126,"count":40,"max":[1,1,1],"min":[-1,-1,-1],"type":"VEC3"},{"bufferView":50,"componentType":5126,"count":40,"max":[0.9191941618919373,1],"min":[0.5,0],"type":"VEC2"},{"bufferView":51,"componentType":5123,"count":48,"max":[39],"min":[0],"type":"SCALAR"},{"bufferView":52,"componentType":5126,"count":40,"max":[-0.53125,1.5,0.03125],"min":[-0.59375,1.25,-0.03125],"type":"VEC3"},{"bufferView":53,"componentType":5126,"count":40,"max":[1,1,1],"min":[-1,-1,-1],"type":"VEC3"},{"bufferView":54,"componentType":5126,"count":40,"max":[0.9191941618919373,1],"min":[0,0.0625],"type":"VEC2"},{"bufferView":55,"componentType":5123,"count":48,"max":[39],"min":[0],"type":"SCALAR"},{"bufferView":56,"componentType":5126,"count":56,"max":[0.25,2.5625,0.25],"min":[-0.25,2.1875,-0.25],"type":"VEC3"},{"bufferView":57,"componentType":5126,"count":56,"max":[0.986393928527832,1,0.986393928527832],"min":[-0.986393928527832,-0.16439898312091827,-0.986393928527832],"type":"VEC3"},{"bufferView":58,"componentType":5126,"count":56,"max":[0.8712559938430786,0.981864869594574],"min":[0,0.21875],"type":"VEC2"},{"bufferView":59,"componentType":5123,"count":72,"max":[55],"min":[0],"type":"SCALAR"},{"bufferView":60,"componentType":5126,"count":80,"max":[0.3125,2.1875,0.3125],"min":[-0.3125,2.125,-0.3125],"type":"VEC3"},{"bufferView":61,"componentType":5126,"count":80,"max":[1,1,1],"min":[-1,-1,-1],"type":"VEC3"},{"bufferView":62,"componentType":5126,"count":80,"max":[0.6875,1],"min":[0,0.40625],"type":"VEC2"},{"bufferView":63,"componentType":5123,"count":96,"max":[79],"min":[0],"type":"SCALAR"}],"materials":[{"pbrMetallicRoughness":{"metallicFactor":0,"roughnessFactor":1,"baseColorTexture":{"index":0}},"alphaMode":"MASK","alphaCutoff":0.05,"doubleSided":true},{"pbrMetallicRoughness":{"metallicFactor":0,"roughnessFactor":1,"baseColorTexture":{"index":1}},"alphaMode":"MASK","alphaCutoff":0.05,"doubleSided":true},{"pbrMetallicRoughness":{"metallicFactor":0,"roughnessFactor":1,"baseColorTexture":{"index":2}},"alphaMode":"MASK","alphaCutoff":0.05,"doubleSided":true}],"textures":[{"sampler":0,"source":0,"name":"texture"},{"sampler":1,"source":1,"name":"texture"},{"sampler":2,"source":2,"name":"texture"}],"samplers":[{"magFilter":9728,"minFilter":9728,"wrapS":33071,"wrapT":33071},{"magFilter":9728,"minFilter":9728,"wrapS":33071,"wrapT":33071},{"magFilter":9728,"minFilter":9728,"wrapS":33071,"wrapT":33071}],"images":[{"mimeType":"image/png","uri":"data:image/png;base64,"},{"mimeType":"image/png","uri":"data:image/png;base64,"},{"mimeType":"image/png","uri":"data:image/png;base64,"}],"meshes":[{"primitives":[{"mode":4,"attributes":{"POSITION":0,"NORMAL":1,"TEXCOORD_0":2},"indices":3,"material":0}]},{"primitives":[{"mode":4,"attributes":{"POSITION":4,"NORMAL":5,"TEXCOORD_0":6},"indices":7,"material":0}]},{"primitives":[{"mode":4,"attributes":{"POSITION":8,"NORMAL":9,"TEXCOORD_0":10},"indices":11,"material":0}]},{"primitives":[{"mode":4,"attributes":{"POSITION":12,"NORMAL":13,"TEXCOORD_0":14},"indices":15,"material":0}]},{"primitives":[{"mode":4,"attributes":{"POSITION":16,"NORMAL":17,"TEXCOORD_0":18},"indices":19,"material":0}]},{"primitives":[{"mode":4,"attributes":{"POSITION":20,"NORMAL":21,"TEXCOORD_0":22},"indices":23,"material":0}]},{"primitives":[{"mode":4,"attributes":{"POSITION":24,"NORMAL":25,"TEXCOORD_0":26},"indices":27,"material":0}]},{"primitives":[{"mode":4,"attributes":{"POSITION":28,"NORMAL":29,"TEXCOORD_0":30},"indices":31,"material":0}]},{"primitives":[{"mode":4,"attributes":{"POSITION":32,"NORMAL":33,"TEXCOORD_0":34},"indices":35,"material":1}]},{"primitives":[{"mode":4,"attributes":{"POSITION":36,"NORMAL":37,"TEXCOORD_0":38},"indices":39,"material":1}]},{"primitives":[{"mode":4,"attributes":{"POSITION":40,"NORMAL":41,"TEXCOORD_0":42},"indices":43,"material":1}]},{"primitives":[{"mode":4,"attributes":{"POSITION":44,"NORMAL":45,"TEXCOORD_0":46},"indices":47,"material":1}]},{"primitives":[{"mode":4,"attributes":{"POSITION":48,"NORMAL":49,"TEXCOORD_0":50},"indices":51,"material":1}]},{"primitives":[{"mode":4,"attributes":{"POSITION":52,"NORMAL":53,"TEXCOORD_0":54},"indices":55,"material":1}]},{"primitives":[{"mode":4,"attributes":{"POSITION":56,"NORMAL":57,"TEXCOORD_0":58},"indices":59,"material":2}]},{"primitives":[{"mode":4,"attributes":{"POSITION":60,"NORMAL":61,"TEXCOORD_0":62},"indices":63,"material":2}]}]}